<svg xmlns="http://www.w3.org/2000/svg" viewBox="0 0 124 91">
  <g fill="none" fill-rule="nonzero">
    <path fill="#FACDAF" d="M.4 21.6v-3.2h15.64v3.2z"/>
    <path fill="#FA6400" d="M38.64 5.16c-.827 0-1.453-.213-1.88-.64-.427-.427-.64-1.053-.64-1.88 0-.8.22-1.413.66-1.84.44-.427 1.06-.64 1.86-.64s1.413.213 1.84.64c.427.427.64 1.04.64 1.84 0 .827-.213 1.453-.64 1.88-.427.427-1.04.64-1.84.64zm2.04 4.04L40.64 32c0 1.707-.373 3.2-1.12 4.48-.747 1.28-1.72 2.253-2.92 2.92-1.2.667-2.493 1-3.88 1-1.573 0-3.053-.44-4.44-1.32-1.387-.88-2.493-2.213-3.32-4L28 33.72c.48 1.093 1.147 1.92 2 2.48s1.773.84 2.76.84c1.253 0 2.313-.44 3.18-1.32.867-.88 1.3-2.12 1.3-3.72V12l-4.68-.28V9.2h8.12zM66.48 32v-3.28c-.613 1.173-1.547 2.113-2.8 2.82a8.093 8.093 0 01-4.04 1.06c-1.6 0-3.04-.507-4.32-1.52-1.28-1.013-2.28-2.373-3-4.08-.72-1.707-1.08-3.56-1.08-5.56V9.16h3.64v13.12c0 1.28.273 2.48.82 3.6.547 1.12 1.3 2.02 2.26 2.7.96.68 2.053 1.02 3.28 1.02 1.147 0 2.067-.32 2.76-.96.693-.64 1.52-1.747 2.48-3.32V9.2h3.4v20.16c0 1.227.08 2.107.24 2.64h-3.64zM87.64 8.56c3.2 0 5.687 1 7.46 3 1.773 2 2.66 4.8 2.66 8.4 0 2.507-.433 4.713-1.3 6.62s-2.1 3.38-3.7 4.42-3.44 1.56-5.52 1.56c-2.56 0-4.707-.76-6.44-2.28V40l-3.4.24V9.2h4.28c-.213.293-.413.713-.6 1.26A4.777 4.777 0 0080.8 12v.08c.853-1.227 1.827-2.12 2.92-2.68s2.4-.84 3.92-.84zm-.4 20.76c1.36 0 2.58-.4 3.66-1.2 1.08-.8 1.927-1.907 2.54-3.32.613-1.413.92-3.027.92-4.84 0-2.533-.613-4.567-1.84-6.1-1.227-1.533-2.853-2.3-4.88-2.3-1.44 0-2.753.393-3.94 1.18-1.187.787-2.153 1.9-2.9 3.34v9.72c.507 1.227 1.28 2.12 2.32 2.68 1.04.56 2.413.84 4.12.84zM119.6 9.2h3.8l-.136.533c-.655 2.483-1.876 6.146-3.664 10.987-1.92 5.2-3.853 10.04-5.8 14.52-1.28 3.52-3.493 5.28-6.64 5.28-.64 0-1.24-.053-1.8-.16l.56-2.64c.213.053.52.08.92.08 1.813 0 3.16-1.187 4.04-3.56l1.4-3.44h-.04l-.263-.686c-.538-1.384-1.317-3.263-2.337-5.636l-1.22-2.829c-1.266-2.964-2.24-5.348-2.92-7.149-.76-2.013-1.26-3.78-1.5-5.3h3.36c.22 1.418.67 3.037 1.349 4.858l.191.502c.787 2.027 1.94 4.813 3.46 8.36l1.56 3.6a282.728 282.728 0 003.66-10.18l.305-.917c.88-2.685 1.451-4.759 1.715-6.223z"/>
    <path fill="#BDDD9B" d="M16.04 79.24H9.72v6.24h-3.2v-6.24H.32v-3.2h6.2V69.8h3.2v6.24h6.32z"/>
    <path fill="#6DD400" d="M44.76 85.28c-.827 1.787-1.933 3.12-3.32 4-1.387.88-2.867 1.32-4.44 1.32a7.861 7.861 0 01-3.88-1c-1.2-.667-2.173-1.64-2.92-2.92-.747-1.28-1.12-2.773-1.12-4.48V70.28H25.4V67.2h3.68v-8.64l3.4.24v8.4h9.72v3.08h-9.72V82.2c0 1.6.433 2.84 1.3 3.72.867.88 1.927 1.32 3.18 1.32.987 0 1.907-.28 2.76-.84.853-.56 1.52-1.387 2-2.48l3.04 1.36zm16.4-18.72c3.227 0 5.66 1.013 7.3 3.04 1.64 2.027 2.393 4.893 2.26 8.6l-.08 1.96-16.24.08c0 1.413.287 2.673.86 3.78.573 1.107 1.38 1.967 2.42 2.58s2.227.92 3.56.92c1.093 0 2.193-.247 3.3-.74 1.107-.493 2.26-1.327 3.46-2.5l2.04 2.48a11.684 11.684 0 01-3.94 2.84c-1.507.667-3.087 1-4.74 1-2 0-3.787-.44-5.36-1.32a9.391 9.391 0 01-3.68-3.68c-.88-1.573-1.32-3.36-1.32-5.36V78.2c.107-3.733 1.02-6.607 2.74-8.62 1.72-2.013 4.193-3.02 7.42-3.02zm5.92 10.6c.133-2.453-.333-4.333-1.4-5.64-1.067-1.307-2.693-1.96-4.88-1.96-2.107 0-3.667.653-4.68 1.96s-1.573 3.187-1.68 5.64h12.64zM93.04 90l-5.6-8.8L81.8 90h-3.64l7.52-11.6-7.12-11.2h3.6l5.32 8.36 5.4-8.36h3.6l-7.2 11.2 7.4 11.6h-3.64zm30.92-4.72c-.827 1.787-1.933 3.12-3.32 4-1.387.88-2.867 1.32-4.44 1.32a7.861 7.861 0 01-3.88-1c-1.2-.667-2.173-1.64-2.92-2.92-.747-1.28-1.12-2.773-1.12-4.48V70.28h-3.68V67.2h3.68v-8.64l3.4.24v8.4h9.72v3.08h-9.72V82.2c0 1.6.433 2.84 1.3 3.72.867.88 1.927 1.32 3.18 1.32.987 0 1.907-.28 2.76-.84.853-.56 1.52-1.387 2-2.48l3.04 1.36z"/>
  </g>
</svg>
